<?xml version="1.0" encoding="UTF-8" standalone="no"?>
<svg
   xmlns:dc="http://purl.org/dc/elements/1.1/"
   xmlns:cc="http://web.resource.org/cc/"
   xmlns:rdf="http://www.w3.org/1999/02/22-rdf-syntax-ns#"
   xmlns:svg="http://www.w3.org/2000/svg"
   xmlns="http://www.w3.org/2000/svg"
   xmlns:xlink="http://www.w3.org/1999/xlink"
   xmlns:sodipodi="http://sodipodi.sourceforge.net/DTD/sodipodi-0.dtd"
   xmlns:inkscape="http://www.inkscape.org/namespaces/inkscape"
   width="230.07001"
   height="426.01999"
   id="svg3675"
   sodipodi:version="0.32"
   inkscape:version="0.45"
   sodipodi:docname="Euro_symbol_gold.svg"
   inkscape:output_extension="org.inkscape.output.svg.inkscape"
   sodipodi:docbase="/home/rugby471/Desktop"
   version="1.0"
   sodipodi:modified="true">
  <metadata
     id="metadata3682">
    <rdf:RDF>
      <cc:Work
         rdf:about="">
        <dc:format>image/svg+xml</dc:format>
        <dc:type
           rdf:resource="http://purl.org/dc/dcmitype/StillImage" />
      </cc:Work>
    </rdf:RDF>
  </metadata>
  <defs
     id="defs3680">
    <linearGradient
       inkscape:collect="always"
       id="linearGradient12421">
      <stop
         style="stop-color:#ffad00;stop-opacity:1;"
         offset="0"
         id="stop12423" />
      <stop
         style="stop-color:#ffad00;stop-opacity:0;"
         offset="1"
         id="stop12425" />
    </linearGradient>
    <linearGradient
       inkscape:collect="always"
       xlink:href="#linearGradient12421"
       id="linearGradient12427"
       x1="-81.83683"
       y1="68.190742"
       x2="323.29596"
       y2="232.67467"
       gradientUnits="userSpaceOnUse"
       gradientTransform="matrix(0.9819171,0,0,0.9819171,-235.25569,-36.506014)" />
    <linearGradient
       inkscape:collect="always"
       xlink:href="#linearGradient12421"
       id="linearGradient4133"
       x1="492.14062"
       y1="114.16078"
       x2="559.85156"
       y2="114.16078"
       gradientUnits="userSpaceOnUse"
       gradientTransform="matrix(3.1351422,0,0,3.1351422,-885.17393,-112.25807)" />
  </defs>
  <sodipodi:namedview
     inkscape:window-height="712"
     inkscape:window-width="1024"
     inkscape:pageshadow="2"
     inkscape:pageopacity="0.0"
     guidetolerance="10.0"
     gridtolerance="10.0"
     objecttolerance="10.0"
     borderopacity="1.0"
     bordercolor="#666666"
     pagecolor="#ffffff"
     id="base"
     inkscape:zoom="1.6284881"
     inkscape:cx="175.36734"
     inkscape:cy="188.7073"
     inkscape:window-x="0"
     inkscape:window-y="0"
     inkscape:current-layer="svg3675"
     width="230.07px"
     height="426.02px" />
  <g
     id="g6082">
    <path
       id="path4135"
       d="M 132.32744,425.49118 L 110.28348,425.49118 L 110.06304,359.13885 C 94.632165,358.84493 79.201395,357.08141 63.770695,353.84829 C 48.339875,350.46824 32.835625,345.4716 17.257915,338.8584 L 17.257915,299.17925 C 32.247785,308.58474 47.384625,315.71227 62.668505,320.56189 C 78.099175,325.26464 93.970835,327.68948 110.28348,327.8364 L 110.28348,227.3159 C 77.805255,222.0255 54.144775,213.06097 39.301915,200.42227 C 24.605875,187.78389 17.257885,170.44266 17.257915,148.3985 C 17.257885,124.44429 25.267205,105.55998 41.285865,91.745512 C 57.304405,77.931572 80.303585,69.995752 110.28348,67.938022 L 110.28348,16.134699 L 132.32744,16.134699 L 132.32744,67.276702 C 145.99453,67.864832 159.22091,69.334432 172.00659,71.685502 C 184.79189,73.890182 197.28345,76.976332 209.48132,80.943962 L 209.48132,119.52091 C 197.28345,113.34884 184.7184,108.57265 171.78616,105.19233 C 159.00048,101.81251 145.84759,99.828552 132.32744,99.240462 L 132.32744,193.3682 C 165.68714,198.51197 190.22938,207.69693 205.95428,220.92316 C 221.67875,234.14966 229.54109,252.2257 229.54134,275.15133 C 229.54109,299.98759 221.16439,319.60671 204.41123,334.00871 C 187.80457,348.26382 163.77665,356.49357 132.32744,358.69795 L 132.32744,425.49118 M 110.28348,189.40027 L 110.28348,99.020012 C 93.236015,100.93075 80.230105,105.78042 71.265665,113.56903 C 62.301035,121.35814 57.818755,131.7188 57.818815,144.65103 C 57.818755,157.28977 61.933635,167.13607 70.163445,174.18995 C 78.540075,181.2442 91.913395,186.31429 110.28348,189.40027 M 132.32744,231.72469 L 132.32744,327.1751 C 150.99116,324.6768 165.02582,319.38625 174.43143,311.30344 C 183.98361,303.2207 188.75978,292.56614 188.76,279.33967 C 188.75978,266.4073 184.20405,256.12014 175.09276,248.47811 C 166.12801,240.83633 151.87292,235.25185 132.32744,231.72469"
       style="font-size:144px;fill:#ffad00;fill-opacity:1" />
    <path
       id="flowRoot2169"
       d="M 118.54321,412.83017 L 96.499255,412.83017 L 96.278815,346.47784 C 80.847935,346.18392 65.417165,344.4204 49.986465,341.18728 C 34.555645,337.80723 19.051395,332.81059 3.4736846,326.19739 L 3.4736846,286.51824 C 18.463555,295.92373 33.600395,303.05126 48.884275,307.90088 C 64.314945,312.60363 80.186605,315.02847 96.499255,315.17539 L 96.499255,214.65489 C 64.021025,209.36449 40.360545,200.39996 25.517685,187.76126 C 10.821645,175.12288 3.4736546,157.78165 3.4736846,135.73749 C 3.4736546,111.78328 11.482975,92.898972 27.501635,79.084502 C 43.520175,65.270562 66.519355,57.334738 96.499255,55.277012 L 96.499255,3.4736846 L 118.54321,3.4736846 L 118.54321,54.615692 C 132.2103,55.203822 145.43668,56.67342 158.22236,59.024485 C 171.00766,61.229168 183.49922,64.31532 195.69709,68.282952 L 195.69709,106.8599 C 183.49922,100.68783 170.93417,95.911642 158.00193,92.531322 C 145.21625,89.151502 132.06336,87.167542 118.54321,86.579452 L 118.54321,180.70719 C 151.90291,185.85096 176.44515,195.03592 192.17005,208.26215 C 207.89452,221.48865 215.75686,239.56469 215.75711,262.49032 C 215.75686,287.32658 207.38016,306.9457 190.627,321.3477 C 174.02034,335.60281 149.99242,343.83256 118.54321,346.03694 L 118.54321,412.83017 M 96.499255,176.73926 L 96.499255,86.359002 C 79.451785,88.269742 66.445875,93.119412 57.481435,100.90802 C 48.516805,108.69713 44.034525,119.05779 44.034585,131.99002 C 44.034525,144.62876 48.149405,154.47506 56.379215,161.52894 C 64.755845,168.58319 78.129165,173.65328 96.499255,176.73926 M 118.54321,219.06368 L 118.54321,314.51409 C 137.20693,312.01579 151.24159,306.72524 160.6472,298.64243 C 170.19938,290.55969 174.97555,279.90513 174.97577,266.67866 C 174.97555,253.74629 170.41982,243.45913 161.30853,235.8171 C 152.34378,228.17532 138.08869,222.59084 118.54321,219.06368"
       style="font-size:144px;fill:#ffe400;fill-opacity:1" />
  </g>
</svg>
